<svg width="9" height="14" viewBox="0 0 9 14" fill="none" xmlns="http://www.w3.org/2000/svg">
<path d="M4.125 0C4.47018 0 4.75 0.279822 4.75 0.625V12.625C4.75 12.9702 4.47018 13.25 4.125 13.25C3.77982 13.25 3.5 12.9702 3.5 12.625V0.625C3.5 0.279822 3.77982 0 4.125 0Z" fill="#687684"/>
<path d="M0.625 5.5C0.970178 5.5 1.25 5.77982 1.25 6.125V12.625C1.25 12.9702 0.970178 13.25 0.625 13.25C0.279822 13.25 0 12.9702 0 12.625V6.125C0 5.77982 0.279822 5.5 0.625 5.5Z" fill="#687684"/>
<path d="M8.25 4.125C8.25 3.77982 7.97018 3.5 7.625 3.5C7.27982 3.5 7 3.77982 7 4.125V12.625C7 12.9702 7.27982 13.25 7.625 13.25C7.97018 13.25 8.25 12.9702 8.25 12.625V4.125Z" fill="#687684"/>
</svg>
