<svg width="15" height="15" viewBox="0 0 15 15" fill="none" xmlns="http://www.w3.org/2000/svg">
<path d="M12.0375 7.97276C11.7614 8.19723 11.3557 8.15593 11.1304 7.88043C10.8996 7.59817 10.9482 7.18094 11.2377 6.95925L12.3878 6.07833C13.4946 5.10389 13.602 3.41668 12.6275 2.30984C11.6531 1.203 9.96587 1.09566 8.85903 2.0701L6.63134 4.03131C5.5245 5.00575 5.41716 6.69296 6.3916 7.79981C6.74699 8.20348 6.96109 8.39149 7.28967 8.47144C7.59589 8.54594 7.84752 8.79521 7.8169 9.10888C7.81294 9.14945 7.80434 9.18943 7.79129 9.22804L7.78696 9.24084C7.69016 9.52715 7.40759 9.71674 7.1111 9.65817C6.45503 9.52855 6.00753 9.25523 5.45339 8.62579C4.02277 7.00079 4.18035 4.52372 5.80535 3.0931L8.03304 1.13188C9.65805 -0.298735 12.1351 -0.14115 13.5657 1.48385C14.9964 3.10886 14.8388 5.58593 13.2138 7.01655L12.0375 7.97276Z" fill="#687684"/>
<path d="M2.7452 7.02742C3.02131 6.80293 3.42701 6.8442 3.65227 7.11969C3.88306 7.40194 3.83451 7.81917 3.54508 8.04088L2.39501 8.92187C1.28823 9.89638 1.18101 11.5836 2.15552 12.6904C3.13003 13.7972 4.81724 13.9044 5.92402 12.9299L8.15159 10.9685C9.25837 9.99402 9.3656 8.3068 8.39109 7.20002C8.03567 6.79636 7.82157 6.60837 7.49298 6.52844C7.18675 6.45396 6.93511 6.2047 6.96571 5.89103C6.96967 5.85047 6.97826 5.81049 6.99131 5.77187L6.99564 5.75907C7.09242 5.47276 7.37498 5.28314 7.67148 5.3417C8.32755 5.47128 8.77507 5.74457 9.32925 6.37397C10.76 7.99889 10.6025 10.476 8.97764 11.9067L6.75007 13.868C5.12515 15.2988 2.64807 15.1413 1.21735 13.5164C-0.213368 11.8915 -0.055944 9.41443 1.56897 7.98371L2.7452 7.02742Z" fill="#687684"/>
</svg>
