<svg width="16" height="22" viewBox="0 0 16 22" fill="none" xmlns="http://www.w3.org/2000/svg">
<path fill-rule="evenodd" clip-rule="evenodd" d="M2.29251 1.17202C2.33089 0.928993 2.54036 0.75 2.7864 0.75H10.3093C10.6276 0.75 10.8649 1.04351 10.7982 1.35476L9.42776 7.75H14.5338C14.9577 7.75 15.1893 8.24443 14.9179 8.57009L3.99579 21.6766C3.67076 22.0666 3.03862 21.78 3.1178 21.2785L4.62231 11.75H1.20745C0.900208 11.75 0.665649 11.4755 0.713567 11.172L2.29251 1.17202ZM3.64089 2.25L2.37773 10.25H5.79259C6.09983 10.25 6.33439 10.5245 6.28647 10.828L5.16503 17.9305L12.3987 9.25H8.19077C7.87245 9.25 7.63517 8.95649 7.70187 8.64524L9.07228 2.25H3.64089Z" fill="#687684"/>
</svg>
